<svg width="698" height="251" viewBox="0 0 698 251" fill="none" xmlns="http://www.w3.org/2000/svg">
<path d="M50.1119 2.19948C33.1582 7.91317 20.0448 22.8062 10.6781 46.785L6.8377 56.5264L9.27305 64.3008C12.3641 74.1358 17.8904 82.2849 25.9458 89.0289C29.3178 91.8389 32.0342 94.2743 31.8468 94.4616C31.7532 94.5553 29.2241 93.8059 26.3205 92.6819C18.7334 89.8719 11.1464 82.2849 6.2757 72.6372L2.52901 65.1438L1.31134 70.7638C0.468336 74.5105 0 82.4722 0 94.6489C0.0936671 114.975 1.21767 121.719 7.30604 135.675C10.3034 142.7 10.3971 142.794 15.9234 145.042C19.0144 146.353 26.2268 148.32 31.8468 149.444L42.1502 151.505L36.0618 152.161C30.4418 152.723 18.8271 151.692 15.0804 150.287C13.6754 149.725 13.7691 150.381 15.7361 154.315C23.8851 170.332 40.4642 189.346 54.7953 199.181C62.757 204.614 85.1434 216.791 84.1131 215.105C83.7384 214.543 82.1461 212.389 80.4601 210.328C66.41 192.718 54.7953 167.803 50.1119 145.042C44.5856 118.253 45.4286 84.0646 52.2663 51.0937C53.2029 46.6914 53.9523 45.1927 55.9193 44.1624C58.0736 42.9447 58.6356 42.9447 60.79 44.4434C64.724 46.9724 65.005 49.033 62.6633 60.3668C59.104 78.0699 57.6053 89.8719 56.9496 104.952C54.9826 156.376 71.749 195.528 111.651 233.183C117.459 238.615 122.423 243.673 122.704 244.329C122.891 244.985 122.329 246.296 121.299 247.326C119.519 249.106 119.519 249.2 122.517 249.949C124.577 250.605 125.889 250.511 126.732 249.668C129.354 247.233 126.732 243.205 113.244 229.53C97.0391 213.138 95.5405 211.171 93.0115 203.022C91.4191 197.776 91.2318 194.966 91.5128 187.098C91.7938 181.853 92.2621 176.701 92.6368 175.671C93.1051 174.547 92.5431 174.922 91.2318 176.608C87.8598 181.01 80.0854 188.691 79.5234 188.129C79.3361 187.848 80.0854 184.944 81.3031 181.666C83.3637 175.952 83.3637 175.39 82.1461 169.114C81.1157 164.244 80.7411 154.128 80.6474 130.523L80.5537 98.4893L74.9337 98.9576L69.3137 99.426L74.1844 96.9906C76.807 95.6793 79.4297 94.0869 79.8981 93.4313C80.4601 92.7756 81.8651 86.2189 83.0827 78.7255C85.9864 60.5541 86.1738 27.7706 83.5511 17.2799C81.1157 7.81951 77.2754 1.35647 73.435 0.607138C67.0657 -0.610535 56.2939 0.0451349 50.1119 2.19948Z" fill="black"/>
<path d="M145.746 96.4286C143.03 97.3653 139.658 98.9576 138.253 99.988C130.666 105.702 126.732 115.911 128.792 124.622C131.228 134.645 137.503 140.64 154.925 149.819C165.697 155.533 170.381 159.654 171.973 164.806C172.91 167.99 172.816 169.021 171.036 172.767C166.915 181.197 156.611 183.071 146.214 177.263C140.126 173.798 135.255 167.428 132.445 159.186C128.792 148.508 127.856 150.475 127.856 168.552C127.856 177.357 128.23 184.663 128.699 184.944C129.167 185.319 130.853 184.288 132.352 182.696C133.944 181.197 135.817 179.886 136.567 179.886C137.316 179.886 140.875 181.01 144.341 182.321C160.545 188.503 176.282 183.726 183.588 170.426C185.836 166.211 186.304 164.337 186.304 158.811C186.304 146.166 180.497 139.422 159.702 128.463C146.589 121.531 141.906 117.129 141.906 111.884C141.906 104.484 146.683 100.269 155.113 100.269C164.948 100.269 174.221 107.856 177.312 118.253C180.122 127.807 181.246 125.372 181.246 109.729C181.246 95.5856 180.309 91.6516 178.342 97.2716C177.78 98.864 176.75 100.363 176.001 100.644C175.251 100.925 171.598 99.8943 167.758 98.3956C158.578 94.649 152.209 94.0869 145.746 96.4286Z" fill="black"/>
<path d="M270.979 95.8666C260.207 98.9576 254.306 106.732 254.306 117.785V123.686H250.091C245.876 123.686 245.876 123.686 245.876 126.964C245.876 130.242 245.876 130.242 250.091 130.242H254.306V153.659C254.306 175.858 254.213 177.17 252.433 178.949C251.403 179.98 249.436 180.823 248.124 180.823C246.626 180.823 245.876 181.291 246.064 181.947C246.719 183.726 279.596 184.195 279.596 182.415C279.596 181.759 278.191 180.823 276.599 180.354C271.541 178.856 271.166 177.076 271.166 152.442V130.242H275.381C279.596 130.242 279.596 130.242 279.596 126.964C279.596 123.686 279.596 123.686 275.381 123.686H271.166V112.914C271.166 103.36 271.354 101.955 273.04 100.269C275.288 98.021 276.224 97.9273 277.723 99.8006C278.379 100.644 278.566 102.236 278.191 104.016C276.88 110.198 284.748 113.851 290.087 109.636C291.398 108.605 292.71 107.013 292.897 106.076C293.646 103.266 291.211 98.6766 288.214 97.0843C284.186 95.0236 276.131 94.4616 270.979 95.8666Z" fill="black"/>
<path d="M559.193 95.773C555.727 97.6463 554.041 100.55 554.041 105.14C554.041 108.886 554.416 109.823 556.945 111.884C562.752 116.754 570.995 113.851 572.4 106.357C573.711 99.0513 565.469 92.3073 559.193 95.773Z" fill="black"/>
<path d="M428.527 98.2083C428.527 98.583 429.745 99.426 431.244 99.988C432.742 100.55 434.709 102.423 435.646 104.109C436.583 105.889 444.17 124.81 452.506 146.166C461.592 169.489 468.148 185.038 468.804 185.038C469.553 185.038 474.705 173.798 481.074 157.968C487.163 143.075 492.315 130.804 492.502 130.617C492.689 130.336 497.373 142.419 502.899 157.406C512.359 182.696 514.045 186.536 515.357 185.225C515.638 184.944 522.475 166.492 530.718 144.199C538.867 122 546.267 102.985 547.11 102.049C547.953 101.112 549.451 100.082 550.388 99.8006C554.884 98.3956 551.325 97.459 541.396 97.459C530.812 97.459 527.346 98.4893 533.903 99.707C538.399 100.55 539.804 103.547 538.399 108.98C537.743 111.134 533.903 122 529.875 133.052C522.663 152.442 522.288 153.097 521.258 150.381C516.949 139.703 504.398 104.765 504.398 103.641C504.398 101.768 507.957 99.3323 510.673 99.3323C511.891 99.3323 512.828 98.864 512.828 98.3956C512.828 97.8336 505.522 97.459 492.689 97.459C479.857 97.459 472.551 97.8336 472.551 98.3956C472.551 98.864 473.581 99.3323 474.799 99.3323C478.92 99.3323 482.479 103.454 486.133 112.633C488.006 117.41 489.598 121.906 489.692 122.655C489.786 124.435 477.983 154.596 477.14 154.596C476.485 154.596 458.688 108.793 457.939 105.14C457.47 102.985 457.845 102.049 459.531 100.831C460.749 99.988 462.435 99.3323 463.371 99.3323C464.308 99.3323 465.057 98.864 465.057 98.3956C465.057 97.8336 458.313 97.459 446.792 97.459C436.77 97.459 428.527 97.8336 428.527 98.2083Z" fill="black"/>
<path d="M349.94 105.983C346.662 111.696 339.356 120.22 334.017 124.248C328.21 128.744 327.929 130.242 332.987 130.242H336.733V149.163C336.827 172.205 337.295 175.296 341.698 179.699C344.32 182.321 345.913 183.071 349.753 183.445C352.282 183.633 355.467 183.633 356.778 183.258C359.869 182.509 364.552 178.481 366.332 175.109C368.393 170.988 366.894 169.864 363.803 173.236C361.087 176.233 357.621 176.982 355.654 175.015C354.811 174.172 354.53 167.803 354.53 152.067V130.242H360.525C363.803 130.242 367.175 130.055 367.831 129.774C368.768 129.399 370.173 131.46 372.608 136.518C378.603 149.538 392.934 184.288 392.934 185.974C392.934 188.503 387.407 201.055 385.44 202.834C382.818 205.27 380.757 203.958 380.757 200.024C380.757 196.371 377.385 192.063 374.669 192.063C370.173 192.063 366.801 195.903 366.801 200.961C366.707 207.143 370.922 210.796 378.134 210.796C383.567 210.796 387.22 208.361 390.405 202.46C391.903 199.837 398.554 183.071 405.204 165.18C411.854 147.384 418.036 131.554 418.973 130.055C419.816 128.556 421.502 127.151 422.626 126.87C423.844 126.496 424.78 125.746 424.78 124.997C424.78 123.967 422.72 123.686 414.852 123.686C407.358 123.686 405.017 123.967 405.298 124.81C405.579 125.465 406.515 126.215 407.546 126.402C412.978 127.339 412.978 132.209 407.358 147.758C404.923 154.315 402.675 160.31 402.394 160.965C401.457 162.651 389.936 135.394 389.749 131.179C389.655 128.556 390.124 127.713 392.278 126.683C393.683 126.027 394.807 125.091 394.807 124.529C394.807 124.06 386.658 123.686 374.669 123.686H354.53V112.914C354.53 100.831 353.593 99.426 349.94 105.983Z" fill="black"/>
<path d="M208.503 123.311C201.853 125.091 197.638 127.713 194.828 131.928C189.863 139.234 193.048 147.103 200.916 147.103C203.726 147.103 205.318 146.541 207.004 144.761C209.814 142.045 210.002 139.141 207.473 135.394C206.442 133.802 205.599 131.835 205.599 130.898C205.599 128.65 211.5 126.215 214.966 126.964C219.368 127.901 220.867 130.43 221.335 138.017L221.71 144.855L211.875 150.287C201.665 155.907 195.109 160.778 193.235 164.244C189.863 170.519 190.8 177.357 195.483 181.291C198.106 183.539 199.136 183.82 203.82 183.445C208.128 183.164 210.283 182.321 214.685 179.324C221.523 174.734 221.523 174.734 221.523 176.608C221.523 177.451 222.74 179.418 224.239 180.916C226.581 183.258 227.705 183.633 231.92 183.633C237.259 183.633 241.849 181.385 244.378 177.544C246.345 174.453 245.408 172.58 242.973 174.828C241.568 176.139 241.006 176.139 239.788 175.203C238.664 174.266 238.383 170.894 238.383 154.877C238.383 133.521 238.008 131.647 232.482 126.777C226.768 121.812 218.619 120.595 208.503 123.311ZM219.93 170.707C217.214 173.329 212.905 173.798 210.283 171.643C205.599 167.803 208.503 159.373 216.746 153.097L221.054 149.725L221.335 159.373C221.523 167.616 221.335 169.208 219.93 170.707Z" fill="black"/>
<path d="M302.17 122.936C297.487 124.248 291.586 128.556 288.682 132.771C284.28 139.234 282.968 143.918 282.968 154.596C282.968 163.401 283.156 164.993 285.497 170.051C290.368 180.448 296.269 184.476 306.573 184.569C313.223 184.569 318.094 182.883 322.121 179.137C325.212 176.233 330.177 168.833 330.177 167.054C330.177 164.806 327.835 165.836 326.055 168.74C322.309 175.015 314.441 176.982 308.54 173.048C304.606 170.426 300.297 162.277 299.548 155.72L298.986 150.849H314.628H330.177V147.758C330.177 146.072 329.521 142.326 328.678 139.609C324.744 126.215 313.972 119.471 302.17 122.936ZM312.661 129.493C314.066 131.366 314.628 133.989 315.003 139.609L315.471 147.196L307.135 146.915L298.798 146.634L299.079 141.483C299.454 135.956 301.234 130.898 303.669 128.088C305.917 125.653 310.319 126.308 312.661 129.493Z" fill="black"/>
<path d="M611.646 123.498C609.586 124.435 606.495 126.402 604.902 127.807L601.811 130.43V127.058V123.686H590.103C580.362 123.686 578.395 123.873 578.395 125.091C578.395 125.84 578.957 126.496 579.706 126.496C580.455 126.496 581.767 127.151 582.516 127.994C583.827 129.212 584.015 132.865 584.015 153.285C584.015 175.858 583.921 177.17 582.141 178.949C579.706 181.385 576.147 181.385 573.711 178.949C571.932 177.17 571.838 175.858 571.838 150.381V123.686H559.661C549.451 123.686 547.484 123.873 547.484 125.091C547.484 125.84 548.327 126.496 549.264 126.496C550.294 126.496 551.793 127.151 552.542 127.994C553.854 129.306 554.041 132.584 553.854 153.94L553.573 178.481L550.575 179.886C548.889 180.635 547.672 181.666 547.859 182.228C548.046 182.79 558.724 183.164 577.458 183.164C596.191 183.164 606.963 182.79 607.15 182.228C607.244 181.666 606.12 180.542 604.621 179.699L601.811 178.106V157.593C601.811 137.08 601.811 137.08 604.153 134.551C607.525 130.898 610.897 129.868 613.613 131.554C616.517 133.521 617.079 138.672 616.611 160.029L616.33 177.263L613.801 179.418C612.302 180.635 611.178 182.134 611.178 182.696C611.178 184.195 639.466 183.539 640.028 181.947C640.215 181.385 639.747 180.823 639.091 180.823C638.342 180.823 636.937 180.261 635.906 179.511C634.22 178.294 634.127 176.514 633.658 155.345C633.19 133.708 633.096 132.397 631.036 129.212C628.226 124.622 625.134 122.749 619.795 122.187C616.704 121.906 614.269 122.281 611.646 123.498Z" fill="black"/>
<path d="M657.262 123.592C639.934 129.587 636.843 151.037 651.923 160.497L656.888 163.588L653.235 165.649C647.615 168.927 644.43 173.704 644.43 179.043C644.43 182.977 644.898 184.007 647.989 187.192L651.642 190.845L649.113 191.501C647.708 191.875 645.554 193.187 644.336 194.404C639.185 199.556 643.212 206.487 653.047 209.204C660.447 211.358 675.246 211.265 682.74 209.204C696.041 205.457 702.316 191.594 694.729 182.509C690.795 177.825 687.142 176.889 671.781 176.327C659.136 175.952 657.824 175.765 656.607 173.891C654.64 171.175 654.827 169.864 657.543 167.241C659.51 165.18 660.634 164.899 667.285 164.899C673.841 164.899 675.434 164.525 680.585 161.808C692.013 155.907 695.666 144.48 689.296 134.645L687.048 131.179H692.2H697.352V127.901V124.622H688.266C682.833 124.622 677.213 124.06 674.497 123.217C668.409 121.344 663.351 121.531 657.262 123.592ZM672.062 128.182C675.246 131.46 676.183 136.143 675.715 147.477C675.246 157.031 673.373 160.497 668.221 160.965C661.384 161.527 658.012 152.348 659.791 137.923C660.541 131.647 661.009 130.43 663.538 128.182C667.191 124.903 668.69 124.903 672.062 128.182ZM684.238 193.749C686.018 194.592 687.61 196.09 687.798 197.027C688.266 199.65 685.456 203.303 681.616 204.989C676.651 207.143 661.384 207.049 657.356 204.895C651.923 201.991 650.799 197.214 654.827 194.03C657.075 192.25 658.574 192.063 669.158 192.063C678.525 192.063 681.616 192.437 684.238 193.749Z" fill="black"/>
</svg>
