<svg width="107" height="41" viewBox="0 0 107 41" fill="none" xmlns="http://www.w3.org/2000/svg">
  <path fill-rule="evenodd" clip-rule="evenodd"
        d="M29.3445 20.1141V9.88513H24.4336V20.1141C24.4336 25.5654 28.8393 29.9856 34.2612 29.9856V25.0593C31.5516 25.0593 29.3445 22.8382 29.3445 20.1141Z"
        fill="#18BABD"/>
  <path fill-rule="evenodd" clip-rule="evenodd"
        d="M45.0205 25.2664V25.2666C45.0194 25.2666 45.0183 25.2665 45.0171 25.2665C45.016 25.2665 45.0148 25.2666 45.0137 25.2666V25.2664C42.2804 25.2627 40.1934 23.0372 40.1934 20.2907V19.8929C40.1934 18.5727 40.6409 17.3181 41.577 16.384C42.5028 15.4511 43.7048 14.778 45.0185 14.7676V14.7676C45.0187 14.7676 45.019 14.7676 45.0192 14.7676C45.0194 14.7676 45.0195 14.7676 45.0198 14.7676V14.7676C46.3335 14.778 47.5314 15.4511 48.4572 16.384C49.3934 17.3181 49.8368 18.5727 49.8368 19.8929V20.2907C49.8368 23.0372 47.7538 25.2627 45.0205 25.2664ZM49.7192 9.88146V11.3642C48.3668 10.476 46.8424 9.76331 45.0083 9.76331H44.9914H44.9606C42.3261 9.76331 39.9025 10.9045 38.0406 12.7592C36.1712 14.6444 35.1953 17.2357 35.1953 19.8929V20.2907C35.1953 25.7882 39.4629 30.2459 44.937 30.2459C46.7041 30.2459 48.3668 29.7415 49.7192 28.8744V40.601H54.4822H54.6322V25.827V25.1821V17.8242V14.8438V9.88341L49.7192 9.88146Z"
        fill="#18BABD"/>
  <path fill-rule="evenodd" clip-rule="evenodd"
        d="M26.9475 6.19601C28.6009 6.19601 29.9926 4.84979 29.9926 3.07627C29.9926 1.34823 28.6009 0 26.9475 0C25.2459 0 23.8242 1.34823 23.8242 3.07627C23.8242 4.84979 25.2459 6.19601 26.9475 6.19601Z"
        fill="#18BABD"/>
  <mask id="mask0_3647_39030" style="mask-type:luminance" maskUnits="userSpaceOnUse" x="91" y="9" width="16"
        height="22">
    <path fill-rule="evenodd" clip-rule="evenodd" d="M106.499 30.2628V9.80933L91.25 9.80933V30.2628H106.499Z"
          fill="white"/>
  </mask>
  <g mask="url(#mask0_3647_39030)">
    <path fill-rule="evenodd" clip-rule="evenodd"
          d="M101.76 18.5228L98.5634 17.5147C97.4532 17.141 96.5642 16.5505 96.614 15.7604C96.7071 14.278 97.9541 13.8949 99.1926 13.9733C99.9434 14.0209 100.799 14.3173 101.293 14.9354L105.683 13.456L105.874 13.3627C104.67 11.0576 102.007 9.99555 99.3324 9.82612C95.4543 9.58101 91.9917 12.0501 91.7945 15.1893C91.65 17.4931 91.962 19.8311 96.9293 21.5272L99.5586 22.3783C100.944 22.7995 101.671 23.3525 101.563 24.3546C101.491 25.4881 100.317 26.2173 98.8967 26.171C97.4988 26.1406 96.3084 25.4313 95.7695 24.5018L91.25 26.0247C92.4144 28.5504 95.2569 30.0561 98.1398 30.239C102.179 30.4949 106.237 28.692 106.487 24.7155C106.585 23.1567 106.199 19.9792 101.76 18.5228Z"
          fill="#18BABD"/>
  </g>
  <path fill-rule="evenodd" clip-rule="evenodd"
        d="M61.8217 17.5887C61.9389 15.6983 63.4262 13.7756 66.1256 13.7756C69.0996 13.7756 70.3518 15.6983 70.4301 17.5887H61.8217ZM66.0475 9.72668C61.1173 9.72668 56.5781 13.7511 56.5781 19.9232C56.5781 26.449 61.2347 30.2693 66.5172 30.2693C69.4082 30.2693 71.67 29.2296 73.2166 27.6592L70.0006 24.4282C69.2428 25.2229 68.1315 25.636 66.5561 25.636C63.9939 25.636 61.8561 24.1102 61.708 21.1431H75.471C75.471 21.1431 75.556 20.3683 75.556 19.6214C75.556 13.4103 71.9951 9.72668 66.0475 9.72668Z"
        fill="#18BABD"/>
  <path fill-rule="evenodd" clip-rule="evenodd"
        d="M84.6426 20.1143V14.1351H89.5819V9.88161H84.6426V2.85156H79.7032V9.88161H76.3516V14.1351H79.7032V20.1143C79.7032 25.5656 84.1133 29.9858 89.5819 29.9858V25.0594C86.8182 25.0594 84.6426 22.8383 84.6426 20.1143Z"
        fill="#18BABD"/>
  <path fill-rule="evenodd" clip-rule="evenodd"
        d="M0 10.5168H4.90344C4.90344 7.79464 7.11414 5.57716 9.82559 5.57716H10.9652V20.1143C10.9652 25.5657 15.371 29.9858 20.7928 29.9858V25.0594C18.0833 25.0594 15.8761 22.8384 15.8761 20.1143V5.57716H21.9019V0.643311H9.82559C4.39958 0.643311 0 5.06964 0 10.5168Z"
        fill="#18BABD"/>
</svg>
